<?xml version="1.0" encoding="utf-8"?>
<!-- Generator: Adobe Illustrator 22.1.0, SVG Export Plug-In . SVG Version: 6.00 Build 0)  -->
<svg version="1.1" id="fallingbird" xmlns="http://www.w3.org/2000/svg" xmlns:xlink="http://www.w3.org/1999/xlink" x="0px"
	 y="0px" viewBox="0 0 300 300" style="enable-background:new 0 0 300 300;" xml:space="preserve">
<style type="text/css">
	.st0{opacity:0.3;fill:url(#SVGID_1_);enable-background:new    ;}
	.st1{opacity:0.3;fill:url(#SVGID_2_);enable-background:new    ;}
	.st2{opacity:0.3;fill:url(#SVGID_3_);enable-background:new    ;}
	.st3{opacity:0.3;fill:url(#SVGID_4_);enable-background:new    ;}
	.st4{opacity:0.3;fill:url(#SVGID_5_);enable-background:new    ;}
	.st5{opacity:0.3;fill:url(#SVGID_6_);enable-background:new    ;}
	.st6{opacity:0.3;fill:url(#SVGID_7_);enable-background:new    ;}
	.st7{opacity:0.3;fill:url(#SVGID_8_);enable-background:new    ;}
	.st8{opacity:0.3;fill:url(#SVGID_9_);enable-background:new    ;}
	.st9{opacity:0.3;fill:url(#SVGID_10_);enable-background:new    ;}
	.st10{opacity:0.3;fill:url(#SVGID_11_);enable-background:new    ;}
	.st11{opacity:0.3;fill:url(#SVGID_12_);enable-background:new    ;}
	.st12{fill:#E4BEBD;}
	.st13{fill:#CEC1A3;}
	.st14{fill:url(#backWing_1_);}
	.st15{fill:url(#body_1_);}
	.st16{fill:#FBCCCC;}
	.st17{fill:#EADEBB;}
	.st18{fill:#DA8483;}
	.st19{fill:url(#frontWing_1_);}
	.st20{fill:#DBBD7A;}
	.st21{fill:#FFDE8D;}
	.st22{fill:#FFFFFF;}
</style>
<g id="motionBlur">
	
		<linearGradient id="SVGID_1_" gradientUnits="userSpaceOnUse" x1="76.36" y1="268.86" x2="76.36" y2="155.49" gradientTransform="matrix(1 0 0 -1 0 302)">
		<stop  offset="0" style="stop-color:#CEC1A3;stop-opacity:0"/>
		<stop  offset="1.000000e-02" style="stop-color:#CDBFA2;stop-opacity:2.000000e-02"/>
		<stop  offset="0.11" style="stop-color:#C0A598;stop-opacity:0.28"/>
		<stop  offset="0.22" style="stop-color:#B48E8F;stop-opacity:0.5"/>
		<stop  offset="0.34" style="stop-color:#AB7B87;stop-opacity:0.68"/>
		<stop  offset="0.47" style="stop-color:#A36C81;stop-opacity:0.82"/>
		<stop  offset="0.61" style="stop-color:#9E627D;stop-opacity:0.92"/>
		<stop  offset="0.77" style="stop-color:#9B5C7B;stop-opacity:0.98"/>
		<stop  offset="1" style="stop-color:#9A5A7A"/>
	</linearGradient>
	<rect x="73.8" y="33.1" class="st0" width="5.2" height="113.4"/>
	
		<linearGradient id="SVGID_2_" gradientUnits="userSpaceOnUse" x1="98.475" y1="268.86" x2="98.475" y2="155.49" gradientTransform="matrix(1 0 0 -1 0 302)">
		<stop  offset="0" style="stop-color:#CEC1A3;stop-opacity:0"/>
		<stop  offset="1.000000e-02" style="stop-color:#CDBFA2;stop-opacity:2.000000e-02"/>
		<stop  offset="0.11" style="stop-color:#C0A598;stop-opacity:0.28"/>
		<stop  offset="0.22" style="stop-color:#B48E8F;stop-opacity:0.5"/>
		<stop  offset="0.34" style="stop-color:#AB7B87;stop-opacity:0.68"/>
		<stop  offset="0.47" style="stop-color:#A36C81;stop-opacity:0.82"/>
		<stop  offset="0.61" style="stop-color:#9E627D;stop-opacity:0.92"/>
		<stop  offset="0.77" style="stop-color:#9B5C7B;stop-opacity:0.98"/>
		<stop  offset="1" style="stop-color:#9A5A7A"/>
	</linearGradient>
	<rect x="97.2" y="33.1" class="st1" width="2.6" height="113.4"/>
	
		<linearGradient id="SVGID_3_" gradientUnits="userSpaceOnUse" x1="116.47" y1="256.31" x2="116.47" y2="155.49" gradientTransform="matrix(1 0 0 -1 0 302)">
		<stop  offset="0" style="stop-color:#CEC1A3;stop-opacity:0"/>
		<stop  offset="1.000000e-02" style="stop-color:#CDBFA2;stop-opacity:2.000000e-02"/>
		<stop  offset="0.11" style="stop-color:#C0A598;stop-opacity:0.28"/>
		<stop  offset="0.22" style="stop-color:#B48E8F;stop-opacity:0.5"/>
		<stop  offset="0.34" style="stop-color:#AB7B87;stop-opacity:0.68"/>
		<stop  offset="0.47" style="stop-color:#A36C81;stop-opacity:0.82"/>
		<stop  offset="0.61" style="stop-color:#9E627D;stop-opacity:0.92"/>
		<stop  offset="0.77" style="stop-color:#9B5C7B;stop-opacity:0.98"/>
		<stop  offset="1" style="stop-color:#9A5A7A"/>
	</linearGradient>
	<rect x="112.3" y="45.7" class="st2" width="8.2" height="100.8"/>
	
		<linearGradient id="SVGID_4_" gradientUnits="userSpaceOnUse" x1="39.9" y1="173.97" x2="39.9" y2="82.55" gradientTransform="matrix(1 0 0 -1 0 302)">
		<stop  offset="0" style="stop-color:#CEC1A3;stop-opacity:0"/>
		<stop  offset="3.000000e-02" style="stop-color:#CFBCA0;stop-opacity:9.000000e-02"/>
		<stop  offset="0.12" style="stop-color:#D2AF99;stop-opacity:0.3"/>
		<stop  offset="0.22" style="stop-color:#D4A393;stop-opacity:0.49"/>
		<stop  offset="0.32" style="stop-color:#D69A8E;stop-opacity:0.65"/>
		<stop  offset="0.42" style="stop-color:#D7928A;stop-opacity:0.77"/>
		<stop  offset="0.53" style="stop-color:#D88C87;stop-opacity:0.87"/>
		<stop  offset="0.65" style="stop-color:#D98785;stop-opacity:0.95"/>
		<stop  offset="0.8" style="stop-color:#DA8583;stop-opacity:0.99"/>
		<stop  offset="1" style="stop-color:#DA8483"/>
	</linearGradient>
	<rect x="36.3" y="128" class="st3" width="7.3" height="91.4"/>
	
		<linearGradient id="SVGID_5_" gradientUnits="userSpaceOnUse" x1="284.955" y1="237.27" x2="284.955" y2="144.82" gradientTransform="matrix(1 0 0 -1 0 302)">
		<stop  offset="0" style="stop-color:#CEC1A3;stop-opacity:0"/>
		<stop  offset="5.000000e-02" style="stop-color:#D1C3A4;stop-opacity:0.14"/>
		<stop  offset="0.14" style="stop-color:#D6C5A4;stop-opacity:0.34"/>
		<stop  offset="0.23" style="stop-color:#DBC8A5;stop-opacity:0.52"/>
		<stop  offset="0.33" style="stop-color:#DFCAA6;stop-opacity:0.67"/>
		<stop  offset="0.43" style="stop-color:#E2CBA6;stop-opacity:0.79"/>
		<stop  offset="0.54" style="stop-color:#E4CCA7;stop-opacity:0.88"/>
		<stop  offset="0.66" style="stop-color:#E6CDA7;stop-opacity:0.95"/>
		<stop  offset="0.8" style="stop-color:#E7CEA7;stop-opacity:0.99"/>
		<stop  offset="1" style="stop-color:#E7CEA7"/>
	</linearGradient>
	<rect x="283.6" y="64.7" class="st4" width="2.6" height="92.4"/>
	
		<linearGradient id="SVGID_6_" gradientUnits="userSpaceOnUse" x1="58.57" y1="215.26" x2="58.57" y2="62.3" gradientTransform="matrix(1 0 0 -1 0 302)">
		<stop  offset="0" style="stop-color:#CEC1A3;stop-opacity:0"/>
		<stop  offset="2.000000e-02" style="stop-color:#CEBDA1;stop-opacity:6.000000e-02"/>
		<stop  offset="0.11" style="stop-color:#D0B09A;stop-opacity:0.28"/>
		<stop  offset="0.21" style="stop-color:#D1A494;stop-opacity:0.47"/>
		<stop  offset="0.31" style="stop-color:#D29A8F;stop-opacity:0.64"/>
		<stop  offset="0.42" style="stop-color:#D3928A;stop-opacity:0.77"/>
		<stop  offset="0.53" style="stop-color:#D48C87;stop-opacity:0.87"/>
		<stop  offset="0.65" style="stop-color:#D58785;stop-opacity:0.94"/>
		<stop  offset="0.79" style="stop-color:#D58583;stop-opacity:0.99"/>
		<stop  offset="1" style="stop-color:#D58483"/>
	</linearGradient>
	<rect x="57.1" y="86.7" class="st5" width="3" height="153"/>
	
		<linearGradient id="SVGID_7_" gradientUnits="userSpaceOnUse" x1="138.79" y1="268.86" x2="138.79" y2="155.49" gradientTransform="matrix(1 0 0 -1 0 302)">
		<stop  offset="0" style="stop-color:#CEC1A3;stop-opacity:0"/>
		<stop  offset="1.000000e-02" style="stop-color:#CDBFA2;stop-opacity:2.000000e-02"/>
		<stop  offset="0.11" style="stop-color:#C0A598;stop-opacity:0.28"/>
		<stop  offset="0.22" style="stop-color:#B48E8F;stop-opacity:0.5"/>
		<stop  offset="0.34" style="stop-color:#AB7B87;stop-opacity:0.68"/>
		<stop  offset="0.47" style="stop-color:#A36C81;stop-opacity:0.82"/>
		<stop  offset="0.61" style="stop-color:#9E627D;stop-opacity:0.92"/>
		<stop  offset="0.77" style="stop-color:#9B5C7B;stop-opacity:0.98"/>
		<stop  offset="1" style="stop-color:#9A5A7A"/>
	</linearGradient>
	<rect x="136.2" y="33.1" class="st6" width="5.2" height="113.4"/>
	
		<linearGradient id="SVGID_8_" gradientUnits="userSpaceOnUse" x1="158.305" y1="268.86" x2="158.305" y2="155.49" gradientTransform="matrix(1 0 0 -1 0 302)">
		<stop  offset="0" style="stop-color:#CEC1A3;stop-opacity:0"/>
		<stop  offset="1.000000e-02" style="stop-color:#CDBFA2;stop-opacity:2.000000e-02"/>
		<stop  offset="0.11" style="stop-color:#C0A598;stop-opacity:0.28"/>
		<stop  offset="0.22" style="stop-color:#B48E8F;stop-opacity:0.5"/>
		<stop  offset="0.34" style="stop-color:#AB7B87;stop-opacity:0.68"/>
		<stop  offset="0.47" style="stop-color:#A36C81;stop-opacity:0.82"/>
		<stop  offset="0.61" style="stop-color:#9E627D;stop-opacity:0.92"/>
		<stop  offset="0.77" style="stop-color:#9B5C7B;stop-opacity:0.98"/>
		<stop  offset="1" style="stop-color:#9A5A7A"/>
	</linearGradient>
	<rect x="157" y="33.1" class="st7" width="2.6" height="113.4"/>
	
		<linearGradient id="SVGID_9_" gradientUnits="userSpaceOnUse" x1="176.65" y1="195.4" x2="176.65" y2="99.83" gradientTransform="matrix(1 0 0 -1 0 302)">
		<stop  offset="0" style="stop-color:#CEC1A3;stop-opacity:0"/>
		<stop  offset="8.000000e-02" style="stop-color:#D6C7A5;stop-opacity:0.2"/>
		<stop  offset="0.16" style="stop-color:#DECDA7;stop-opacity:0.38"/>
		<stop  offset="0.25" style="stop-color:#E5D2A8;stop-opacity:0.55"/>
		<stop  offset="0.35" style="stop-color:#EBD6AA;stop-opacity:0.69"/>
		<stop  offset="0.45" style="stop-color:#F0DAAB;stop-opacity:0.8"/>
		<stop  offset="0.55" style="stop-color:#F3DDAC;stop-opacity:0.89"/>
		<stop  offset="0.67" style="stop-color:#F6DFAD;stop-opacity:0.95"/>
		<stop  offset="0.8" style="stop-color:#F8E0AD;stop-opacity:0.99"/>
		<stop  offset="1" style="stop-color:#F8E0AD"/>
	</linearGradient>
	<rect x="174" y="106.6" class="st8" width="5.2" height="95.6"/>
	
		<linearGradient id="SVGID_10_" gradientUnits="userSpaceOnUse" x1="207.485" y1="242.44" x2="207.485" y2="139.12" gradientTransform="matrix(1 0 0 -1 0 302)">
		<stop  offset="0" style="stop-color:#CEC1A3;stop-opacity:0"/>
		<stop  offset="3.000000e-02" style="stop-color:#CFBDA1;stop-opacity:7.000000e-02"/>
		<stop  offset="0.12" style="stop-color:#D1B09A;stop-opacity:0.28"/>
		<stop  offset="0.21" style="stop-color:#D4A494;stop-opacity:0.48"/>
		<stop  offset="0.31" style="stop-color:#D69A8F;stop-opacity:0.64"/>
		<stop  offset="0.41" style="stop-color:#D7928A;stop-opacity:0.77"/>
		<stop  offset="0.52" style="stop-color:#D88C87;stop-opacity:0.87"/>
		<stop  offset="0.64" style="stop-color:#D98785;stop-opacity:0.94"/>
		<stop  offset="0.78" style="stop-color:#DA8583;stop-opacity:0.99"/>
		<stop  offset="0.97" style="stop-color:#DA8483"/>
		<stop  offset="0.97" style="stop-color:#CB7A81"/>
		<stop  offset="0.98" style="stop-color:#B56C7E"/>
		<stop  offset="0.98" style="stop-color:#A6627C"/>
		<stop  offset="0.99" style="stop-color:#9D5C7A"/>
		<stop  offset="1" style="stop-color:#9A5A7A"/>
	</linearGradient>
	<rect x="206.1" y="59.6" class="st9" width="2.7" height="103.3"/>
	
		<linearGradient id="SVGID_11_" gradientUnits="userSpaceOnUse" x1="240.14" y1="218.54" x2="240.14" y2="134.97" gradientTransform="matrix(1 0 0 -1 0 302)">
		<stop  offset="0" style="stop-color:#CEC1A3;stop-opacity:0"/>
		<stop  offset="5.000000e-02" style="stop-color:#D1C3A4;stop-opacity:0.14"/>
		<stop  offset="0.14" style="stop-color:#D6C5A4;stop-opacity:0.34"/>
		<stop  offset="0.23" style="stop-color:#DBC8A5;stop-opacity:0.52"/>
		<stop  offset="0.33" style="stop-color:#DFCAA6;stop-opacity:0.67"/>
		<stop  offset="0.43" style="stop-color:#E2CBA6;stop-opacity:0.79"/>
		<stop  offset="0.54" style="stop-color:#E4CCA7;stop-opacity:0.88"/>
		<stop  offset="0.66" style="stop-color:#E6CDA7;stop-opacity:0.95"/>
		<stop  offset="0.8" style="stop-color:#E7CEA7;stop-opacity:0.99"/>
		<stop  offset="1" style="stop-color:#E7CEA7"/>
	</linearGradient>
	<rect x="236" y="83.5" class="st10" width="8.2" height="83.6"/>
	
		<linearGradient id="SVGID_12_" gradientUnits="userSpaceOnUse" x1="266.035" y1="236.56" x2="266.035" y2="145.53" gradientTransform="matrix(1 0 0 -1 0 302)">
		<stop  offset="0" style="stop-color:#CEC1A3;stop-opacity:0"/>
		<stop  offset="5.000000e-02" style="stop-color:#D1C3A4;stop-opacity:0.14"/>
		<stop  offset="0.14" style="stop-color:#D6C5A4;stop-opacity:0.34"/>
		<stop  offset="0.23" style="stop-color:#DBC8A5;stop-opacity:0.52"/>
		<stop  offset="0.33" style="stop-color:#DFCAA6;stop-opacity:0.67"/>
		<stop  offset="0.43" style="stop-color:#E2CBA6;stop-opacity:0.79"/>
		<stop  offset="0.54" style="stop-color:#E4CCA7;stop-opacity:0.88"/>
		<stop  offset="0.66" style="stop-color:#E6CDA7;stop-opacity:0.95"/>
		<stop  offset="0.8" style="stop-color:#E7CEA7;stop-opacity:0.99"/>
		<stop  offset="1" style="stop-color:#E7CEA7"/>
	</linearGradient>
	<rect x="264.7" y="65.4" class="st11" width="2.6" height="91"/>
</g>
<path id="backFeet" class="st12" d="M189.5,184.9l1.8-10c0,0-5.8-5.3-6.4-18.7c-0.6-13,0.8-16.4,4.2-19.3s9.8-1,9.8-1
	s-5.8,3.7-6.2,8.1c-0.4,4.1-2,14.4,0.1,17.2c1.4,1.8,3.2,3.1,5.3,3.9c0,0,2.7-1.4,4-6.2s-2.1-5.8-2.1-5.8s6.6,0.8,6.8,4
	s0.4,12-3.9,15.8s-5.9,4.6-5.9,4.6l-1.1,11.5L189.5,184.9z"/>
<path id="backLeg" class="st13" d="M179.7,205.4c-0.2-3.4,0.6-6.7,2.2-9.6c2.2-4,4.7-7.8,7.4-11.5l5.6,0.5c0,0,0.4,9.6-2.4,14.5
	S179.7,205.4,179.7,205.4z"/>
<linearGradient id="backWing_1_" gradientUnits="userSpaceOnUse" x1="-353.9594" y1="-153.8491" x2="-217.3099" y2="-18.2188" gradientTransform="matrix(0.49 -0.81 -0.71 -0.38 182.09 -113.64)">
	<stop  offset="0" style="stop-color:#CEC1A3"/>
	<stop  offset="0.1" style="stop-color:#C1A799"/>
	<stop  offset="0.24" style="stop-color:#B38B8E"/>
	<stop  offset="0.38" style="stop-color:#A87585"/>
	<stop  offset="0.55" style="stop-color:#A0667F"/>
	<stop  offset="0.73" style="stop-color:#9B5D7B"/>
	<stop  offset="1" style="stop-color:#9A5A7A"/>
</linearGradient>
<path id="backWing" class="st14" d="M114.1,231.3c-16.2-6.8-40.7-41.4-43-47.5s-5.7-26.2-5.2-50.5s13.5-61,13.5-61
	s28.1,17.1,35.8,32.6c11.7,23.4,4.4,46.9,4.4,46.9s15.6,9.1,22.4,20.8c7,12.1,9.2,22.6,7.7,30S122.3,234.3,114.1,231.3z"/>
<linearGradient id="body_1_" gradientUnits="userSpaceOnUse" x1="121.1638" y1="441.1327" x2="121.1638" y2="561.1727" gradientTransform="matrix(0.99 -0.17 0.15 0.89 -19.44 -226.89)">
	<stop  offset="0" style="stop-color:#CEC1A3"/>
	<stop  offset="0.19" style="stop-color:#E3D5B3"/>
	<stop  offset="0.41" style="stop-color:#F3E5BF"/>
	<stop  offset="0.66" style="stop-color:#FCEEC7"/>
	<stop  offset="1" style="stop-color:#FFF1C9"/>
</linearGradient>
<path id="body" class="st15" d="M62.4,235.6c0,0,2,40.4,73.9,25.5c55.8-11.6,53.1-34.3,70.2-43.2s79-54.9,79-54.9s7.4-7.5-3-17.5
	s-34.8-13-34.8-13s-27.9,62.9-38.3,63.8s-38.3,4.6-62.4,5.9C122,203.7,55.4,195.2,62.4,235.6z"/>
<path id="frontFeet" class="st16" d="M198.6,183l1.2-10.1c0,0-6.1-5-7.4-18.3c-1.2-12.9-0.1-16.4,3.2-19.5s9.7-1.5,9.7-1.5
	s-5.6,4-5.8,8.4c-0.2,4.1-1.3,14.5,1.1,17.2c1.5,1.7,3.4,2.9,5.5,3.6c0,0,2.6-1.5,3.7-6.4s-2.4-5.7-2.4-5.7s6.6,0.4,7,3.6
	s1,11.9-3.1,16s-5.6,4.9-5.6,4.9l-0.5,11.5L198.6,183z"/>
<path id="frontLeg" class="st17" d="M192,199.7c0,0-2-0.1,0.3-6.4c1.9-4.8,4.1-9.4,6.6-13.9l6.9,0.3c0,0,1.6,13.9-0.9,19.8
	S192,199.7,192,199.7z"/>
<path id="head" class="st18" d="M84.8,260.6c6.7,2.8,23.6,6.3,33.7-19.5s-8.7-38.8-8.7-38.8s-9-2.4-35.6-5c-12.5-1.2-33,2-37.2,16.5
	C31.6,232.1,78.1,257.9,84.8,260.6z"/>
<linearGradient id="frontWing_1_" gradientUnits="userSpaceOnUse" x1="-29.7897" y1="-53.6354" x2="-29.7897" y2="109.0146" gradientTransform="matrix(0.78 -0.63 -0.5 -0.66 175.88 173.72)">
	<stop  offset="0" style="stop-color:#FFF2CA"/>
	<stop  offset="1.000000e-02" style="stop-color:#FDEFC8"/>
	<stop  offset="0.11" style="stop-color:#E3C8B4"/>
	<stop  offset="0.22" style="stop-color:#CCA6A2"/>
	<stop  offset="0.34" style="stop-color:#BA8A93"/>
	<stop  offset="0.46" style="stop-color:#AC7588"/>
	<stop  offset="0.6" style="stop-color:#A26680"/>
	<stop  offset="0.76" style="stop-color:#9C5D7B"/>
	<stop  offset="1" style="stop-color:#9A5A7A"/>
</linearGradient>
<path id="frontWing" class="st19" d="M121.9,248.8c-13.5-13.3-25.3-56.6-25.4-63.3s3.6-27.3,12.7-50s34.8-52,34.8-52
	s21.6,28.2,23.7,46.1c1.8,16.4-2.6,32.9-12.2,46.3c0,0,12.1,15.2,14.7,29.2c2.6,14.4,1,25.4-3.1,31.7S128.9,255.1,121.9,248.8z"/>
<path id="beakLow" class="st20" d="M48.5,205.9l5.9-1.9c-0.3-2.7-0.1-5.4,0.8-7.9c1.5-3.8,2.5-3.2,2.5-3.2s-5-0.4-6.9,2.9
	S48.5,205.9,48.5,205.9z"/>
<path id="beak" class="st21" d="M54.3,204.1c0,0,0.5,2.9-3.8,5.2s-7.6,0.1-9.3-2.5c-2.8-3.9-3.2-9-1.1-13.3c2.9-6,14.6-1.9,14.6-1.9
	s-11.1,0.2-5.8,6.4L54.3,204.1z"/>
<g id="eye">
	<circle id="eye-2" cx="49.2" cy="219.5" r="5.8"/>
	
		<ellipse id="eyeShine" transform="matrix(0.9856 -0.1693 0.1693 0.9856 -36.2032 11.2232)" class="st22" cx="47.7" cy="217.8" rx="1.8" ry="1.9"/>
</g>
<polygon class="st18" points="42.3,213.6 55.1,229.4 42.3,225.3 "/>
</svg>
